<svg xmlns="http://www.w3.org/2000/svg" width="288" height="288" viewBox="0 0 288 288" shape-rendering="geometricPrecision"><defs><linearGradient id="filletV" x1="0" y1="0" x2="0" y2="1" ><stop offset="0" stop-color="#ffffff"/><stop offset="0.5" stop-color="#f7f4ee"/><stop offset="1" stop-color="#e3ded3"/></linearGradient><linearGradient id="filletH" x1="0" y1="0" x2="1" y2="0" ><stop offset="0" stop-color="#ffffff"/><stop offset="0.5" stop-color="#f7f4ee"/><stop offset="1" stop-color="#e3ded3"/></linearGradient><linearGradient id="grooveV" x1="0" y1="0" x2="0" y2="1" ><stop offset="0" stop-color="#cfc8ba"/><stop offset="0.35" stop-color="#e8e3d9"/><stop offset="0.7" stop-color="#f6f3ed"/><stop offset="1" stop-color="#d9d3c6"/></linearGradient><linearGradient id="grooveH" x1="0" y1="0" x2="1" y2="0" ><stop offset="0" stop-color="#cfc8ba"/><stop offset="0.35" stop-color="#e8e3d9"/><stop offset="0.7" stop-color="#f6f3ed"/><stop offset="1" stop-color="#d9d3c6"/></linearGradient><linearGradient id="hollowV" x1="0" y1="0" x2="0" y2="1" ><stop offset="0" stop-color="#bcb3a3"/><stop offset="0.18" stop-color="#d1cabc"/><stop offset="0.55" stop-color="#e9e5dc"/><stop offset="0.85" stop-color="#f1eee7"/><stop offset="1" stop-color="#d9d3c6"/></linearGradient><linearGradient id="hollowH" x1="0" y1="0" x2="1" y2="0" ><stop offset="0" stop-color="#bcb3a3"/><stop offset="0.18" stop-color="#d1cabc"/><stop offset="0.55" stop-color="#e9e5dc"/><stop offset="0.85" stop-color="#f1eee7"/><stop offset="1" stop-color="#d9d3c6"/></linearGradient><linearGradient id="eggV" x1="0" y1="0" x2="0" y2="1" ><stop offset="0" stop-color="#f1ede5"/><stop offset="0.5" stop-color="#fdfcf9"/><stop offset="1" stop-color="#d8d2c5"/></linearGradient><linearGradient id="eggH" x1="0" y1="0" x2="1" y2="0" ><stop offset="0" stop-color="#f1ede5"/><stop offset="0.5" stop-color="#fdfcf9"/><stop offset="1" stop-color="#d8d2c5"/></linearGradient><linearGradient id="coveV" x1="0" y1="0" x2="0" y2="1" ><stop offset="0" stop-color="#fbfaf6"/><stop offset="0.45" stop-color="#e9e5db"/><stop offset="0.8" stop-color="#c9c2b3"/><stop offset="1" stop-color="#aaa08e"/></linearGradient><linearGradient id="coveH" x1="0" y1="0" x2="1" y2="0" ><stop offset="0" stop-color="#fbfaf6"/><stop offset="0.45" stop-color="#e9e5db"/><stop offset="0.8" stop-color="#c9c2b3"/><stop offset="1" stop-color="#aaa08e"/></linearGradient><linearGradient id="goldbandV" x1="0" y1="0" x2="0" y2="1" ><stop offset="0" stop-color="#fff0bf"/><stop offset="0.45" stop-color="#e2c87c"/><stop offset="1" stop-color="#b2924a"/></linearGradient><linearGradient id="goldbandH" x1="0" y1="0" x2="1" y2="0" ><stop offset="0" stop-color="#fff0bf"/><stop offset="0.45" stop-color="#e2c87c"/><stop offset="1" stop-color="#b2924a"/></linearGradient><linearGradient id="leafG"  x1="0" y1="1" x2="0" y2="0"><stop offset="0" stop-color="#d9d3c6"/><stop offset="0.35" stop-color="#f1eee7"/><stop offset="0.7" stop-color="#ffffff"/><stop offset="1" stop-color="#f8f6f2"/></linearGradient><linearGradient id="curl"  x1="0" y1="0" x2="0" y2="1"><stop offset="0" stop-color="#d7d1c3"/><stop offset="1" stop-color="#f8f6f1"/></linearGradient><linearGradient id="goldG"  x1="0" y1="0" x2="1" y2="1"><stop offset="0" stop-color="#fff3cf"/><stop offset="0.45" stop-color="#e4c877"/><stop offset="1" stop-color="#a8873c"/></linearGradient><radialGradient id="pearl" cx=".36" cy=".32" r=".75"><stop offset="0" stop-color="#ffffff"/><stop offset="0.55" stop-color="#f3f0e9"/><stop offset="1" stop-color="#bdb5a5"/></radialGradient><radialGradient id="eggG" cx=".4" cy=".3" r=".8"><stop offset="0" stop-color="#ffffff"/><stop offset="0.6" stop-color="#f2eee6"/><stop offset="1" stop-color="#c5bdad"/></radialGradient><radialGradient id="petal" cx=".5" cy=".25" r=".9"><stop offset="0" stop-color="#ffffff"/><stop offset="0.65" stop-color="#f4f1ea"/><stop offset="1" stop-color="#cfc8b9"/></radialGradient><radialGradient id="boss" cx=".38" cy=".35" r=".8"><stop offset="0" stop-color="#fff8e0"/><stop offset="0.5" stop-color="#e4c877"/><stop offset="1" stop-color="#9c7c33"/></radialGradient><linearGradient id="block"  x1="0" y1="0" x2="1" y2="1"><stop offset="0" stop-color="#ffffff"/><stop offset="0.5" stop-color="#f5f2ec"/><stop offset="1" stop-color="#ddd7ca"/></linearGradient><clipPath id="miter"><polygon points="0,0 0,96 96,96"/></clipPath><clipPath id="miterTop"><polygon points="0,0 96,0 96,96"/></clipPath><g id="lf"><path d="M0 0 C2 -0.1 3.5 -0.5 5.5 -1.5 Q6.9 -4.9 10.5 -4.0 Q9.7 -7.4 13.0 -8.5 Q9.9 -9.4 11.0 -12.5 Q6.9 -12.2 5.9 -12.8 A2.3 2.3 0 0 1 5.0 -15.8 Q4.8 -14.4 11.0 -15.2 Q9.5 -18.3 12.5 -20.0 Q9.3 -21.3 10.5 -24.5 Q6.5 -24.2 5.5 -24.8 A2.3 2.3 0 0 1 4.6 -27.8 Q4.4 -26.2 9.5 -27.0 Q7.7 -29.8 10.5 -31.5 Q7.3 -31.9 8.0 -35.0 Q5.1 -34.7 5.1 -35.0 A2.3 2.3 0 0 1 4.2 -38.0 Q4.0 -36.4 6.0 -37.2 Q3.6 -37.6 3.2 -40.0 Q0.9 -39.8 0.0 -42.0 L0 -1 ZM0 0 C-2 -0.1 -3.5 -0.5 -5.5 -1.5 Q-6.9 -4.9 -10.5 -4.0 Q-9.7 -7.4 -13.0 -8.5 Q-9.9 -9.4 -11.0 -12.5 Q-0.3 -12.2 -5.9 -12.8 A2.3 2.3 0 0 0 -5.0 -15.8 Q-4.8 -14.4 -11.0 -15.2 Q-9.5 -18.3 -12.5 -20.0 Q-9.3 -21.3 -10.5 -24.5 Q0.1 -24.2 -5.5 -24.8 A2.3 2.3 0 0 0 -4.6 -27.8 Q-4.4 -26.2 -9.5 -27.0 Q-7.7 -29.8 -10.5 -31.5 Q-7.3 -31.9 -8.0 -35.0 Q-0.5 -34.7 -5.1 -35.0 A2.3 2.3 0 0 0 -4.2 -38.0 Q-4.0 -36.4 -6.0 -37.2 Q-3.6 -37.6 -3.2 -40.0 Q-0.9 -39.8 0.0 -42.0 L0 -1 Z" transform="translate(1.1 1.4)" fill="#9d9382" opacity=".45"/><path d="M0 0 C2 -0.1 3.5 -0.5 5.5 -1.5 Q6.9 -4.9 10.5 -4.0 Q9.7 -7.4 13.0 -8.5 Q9.9 -9.4 11.0 -12.5 Q6.9 -12.2 5.9 -12.8 A2.3 2.3 0 0 1 5.0 -15.8 Q4.8 -14.4 11.0 -15.2 Q9.5 -18.3 12.5 -20.0 Q9.3 -21.3 10.5 -24.5 Q6.5 -24.2 5.5 -24.8 A2.3 2.3 0 0 1 4.6 -27.8 Q4.4 -26.2 9.5 -27.0 Q7.7 -29.8 10.5 -31.5 Q7.3 -31.9 8.0 -35.0 Q5.1 -34.7 5.1 -35.0 A2.3 2.3 0 0 1 4.2 -38.0 Q4.0 -36.4 6.0 -37.2 Q3.6 -37.6 3.2 -40.0 Q0.9 -39.8 0.0 -42.0 L0 -1 ZM0 0 C-2 -0.1 -3.5 -0.5 -5.5 -1.5 Q-6.9 -4.9 -10.5 -4.0 Q-9.7 -7.4 -13.0 -8.5 Q-9.9 -9.4 -11.0 -12.5 Q-0.3 -12.2 -5.9 -12.8 A2.3 2.3 0 0 0 -5.0 -15.8 Q-4.8 -14.4 -11.0 -15.2 Q-9.5 -18.3 -12.5 -20.0 Q-9.3 -21.3 -10.5 -24.5 Q0.1 -24.2 -5.5 -24.8 A2.3 2.3 0 0 0 -4.6 -27.8 Q-4.4 -26.2 -9.5 -27.0 Q-7.7 -29.8 -10.5 -31.5 Q-7.3 -31.9 -8.0 -35.0 Q-0.5 -34.7 -5.1 -35.0 A2.3 2.3 0 0 0 -4.2 -38.0 Q-4.0 -36.4 -6.0 -37.2 Q-3.6 -37.6 -3.2 -40.0 Q-0.9 -39.8 0.0 -42.0 L0 -1 Z" fill="url(#leafG)" stroke="#bfb7a8" stroke-width=".85" stroke-linejoin="round"/><path d="M0 0 C-2 -0.1 -3.5 -0.5 -5.5 -1.5 Q-6.9 -4.9 -10.5 -4.0 Q-9.7 -7.4 -13.0 -8.5 Q-9.9 -9.4 -11.0 -12.5 Q-0.3 -12.2 -5.9 -12.8 A2.3 2.3 0 0 0 -5.0 -15.8 Q-4.8 -14.4 -11.0 -15.2 Q-9.5 -18.3 -12.5 -20.0 Q-9.3 -21.3 -10.5 -24.5 Q0.1 -24.2 -5.5 -24.8 A2.3 2.3 0 0 0 -4.6 -27.8 Q-4.4 -26.2 -9.5 -27.0 Q-7.7 -29.8 -10.5 -31.5 Q-7.3 -31.9 -8.0 -35.0 Q-0.5 -34.7 -5.1 -35.0 A2.3 2.3 0 0 0 -4.2 -38.0 Q-4.0 -36.4 -6.0 -37.2 Q-3.6 -37.6 -3.2 -40.0 Q-0.9 -39.8 0.0 -42.0 L0 -1 Z" fill="#9d9382" opacity=".2"/><path d="M-0.7 -1 Q-1.2 -19 -0.5 -35" stroke="#a79d8c" stroke-width="1.1" fill="none" stroke-linecap="round"/><path d="M0.8 -1.5 Q0.4 -19 0.9 -34.5" stroke="#ffffff" stroke-width=".8" fill="none" opacity=".95"/><path d="M0 -4 C4 -4.5 8 -5.5 11.5 -9 M0 -16 C4 -16.5 8 -18 10.8 -21.5 M0 -27.5 C3.5 -28 6.5 -29.5 9 -32.5 M0 -36.5 C2 -37 3.5 -38 4.8 -39.5" stroke="#a79d8c" stroke-width=".7" fill="none" stroke-linecap="round" opacity=".9"/><path d="M0 -4 C-4 -4.5 -8 -5.5 -11.5 -9 M0 -16 C-4 -16.5 -8 -18 -10.8 -21.5 M0 -27.5 C-3.5 -28 -6.5 -29.5 -9 -32.5 M0 -36.5 C-2 -37 -3.5 -38 -4.8 -39.5" stroke="#a79d8c" stroke-width=".7" fill="none" stroke-linecap="round" opacity=".9"/><path d="M0.5 -3.3 C4.5 -3.8 8.3 -4.8 11.6 -8.2 M0.5 -15.3 C4.5 -15.8 8.3 -17.3 10.9 -20.7 M0.5 -26.8 C4 -27.3 6.8 -28.8 9.1 -31.7" stroke="#ffffff" stroke-width=".5" fill="none" opacity=".55"/><path d="M-0.5 -3.3 C-4.5 -3.8 -8.3 -4.8 -11.6 -8.2 M-0.5 -15.3 C-4.5 -15.8 -8.3 -17.3 -10.9 -20.7 M-0.5 -26.8 C-4 -27.3 -6.8 -28.8 -9.1 -31.7" stroke="#ffffff" stroke-width=".5" fill="none" opacity=".55"/><path d="M5.2 -13 C6 -10 6.8 -7 7.8 -3.5 M4.6 -25 C5.3 -22 6.2 -19 7 -16 M3.8 -35.2 C4.3 -33 5 -30.5 5.8 -28" stroke="#9d9382" stroke-width="1.7" fill="none" stroke-linecap="round" opacity=".5"/><path d="M-5.2 -13 C-6 -10 -6.8 -7 -7.8 -3.5 M-4.6 -25 C-5.3 -22 -6.2 -19 -7 -16 M-3.8 -35.2 C-4.3 -33 -5 -30.5 -5.8 -28" stroke="#9d9382" stroke-width="1.7" fill="none" stroke-linecap="round" opacity=".5"/><path d="M-5.6 -37.4 C-2.5 -43.5 3.5 -43.5 6 -38 C4 -35 0.6 -34.2 -1.8 -35.2 C-3.6 -35.9 -4.9 -36.5 -5.6 -37.4 Z" transform="translate(.9 1.1)" fill="#9d9382" opacity=".45"/><path d="M-5.6 -37.4 C-2.5 -43.5 3.5 -43.5 6 -38 C4 -35 0.6 -34.2 -1.8 -35.2 C-3.6 -35.9 -4.9 -36.5 -5.6 -37.4 Z" fill="url(#curl)" stroke="#bfb7a8" stroke-width=".8" stroke-linejoin="round"/><path d="M-4 -37.6 C-1.5 -41.6 2.8 -41.6 4.8 -38.3" stroke="#ffffff" stroke-width=".8" fill="none" stroke-linecap="round"/><path d="M-3.6 -36.4 C-0.8 -34.9 2.2 -35.1 4.6 -37.4" stroke="#a79d8c" stroke-width=".5" fill="none"/></g></defs><defs><g id="edge"><rect x="0" y="0" width="96" height="5" fill="url(#filletV)"/><rect x="0" y="5" width="96" height="9" fill="url(#grooveV)"/><rect x="0" y="14" width="96" height="4" fill="url(#filletV)"/><rect x="0" y="18" width="96" height="40" fill="url(#hollowV)"/><rect x="0" y="58" width="96" height="3" fill="url(#filletV)"/><rect x="0" y="61" width="96" height="15" fill="url(#eggV)"/><rect x="0" y="76" width="96" height="3" fill="url(#goldbandV)"/><rect x="0" y="79" width="96" height="17" fill="url(#coveV)"/><line x1="0" y1="5" x2="96" y2="5" stroke="#bfb7a8" stroke-width="0.8" opacity="1"/><line x1="0" y1="14" x2="96" y2="14" stroke="#bfb7a8" stroke-width="0.8" opacity="1"/><line x1="0" y1="18" x2="96" y2="18" stroke="#bfb7a8" stroke-width="0.8" opacity="1"/><line x1="0" y1="58" x2="96" y2="58" stroke="#bfb7a8" stroke-width="0.8" opacity="1"/><line x1="0" y1="61" x2="96" y2="61" stroke="#bfb7a8" stroke-width="0.8" opacity="1"/><line x1="0" y1="76" x2="96" y2="76" stroke="#bfb7a8" stroke-width="0.8" opacity="1"/><line x1="0" y1="79" x2="96" y2="79" stroke="#bfb7a8" stroke-width="0.8" opacity="1"/><line x1="0" y1="1.2" x2="96" y2="1.2" stroke="#ffffff" stroke-width="0.9" opacity="0.9"/><line x1="0" y1="15.2" x2="96" y2="15.2" stroke="#ffffff" stroke-width="0.8" opacity="0.9"/><line x1="0" y1="59.2" x2="96" y2="59.2" stroke="#ffffff" stroke-width="0.8" opacity="0.9"/><line x1="0" y1="76.6" x2="96" y2="76.6" stroke="#fff3cf" stroke-width="0.8" opacity="1"/><line x1="0" y1="78.4" x2="96" y2="78.4" stroke="#a3843a" stroke-width="0.6" opacity="0.8"/><line x1="0" y1="95.4" x2="96" y2="95.4" stroke="#8f8574" stroke-width="1.2" opacity="1"/><ellipse cx="2.8" cy="9.5" rx="0.9" ry="2.81" fill="url(#pearl)" stroke="#bfb7a8" stroke-width=".5"/><ellipse cx="4.8" cy="9.5" rx="0.9" ry="2.81" fill="url(#pearl)" stroke="#bfb7a8" stroke-width=".5"/><circle cx="8.6" cy="10.2" r="3.60" fill="#9d9382" opacity=".35"/><circle cx="8" cy="9.5" r="3.60" fill="url(#pearl)" stroke="#bfb7a8" stroke-width=".6"/><circle cx="6.74" cy="8.06" r="1.08" fill="#ffffff" opacity=".9"/><ellipse cx="18.8" cy="9.5" rx="0.9" ry="2.81" fill="url(#pearl)" stroke="#bfb7a8" stroke-width=".5"/><ellipse cx="20.8" cy="9.5" rx="0.9" ry="2.81" fill="url(#pearl)" stroke="#bfb7a8" stroke-width=".5"/><circle cx="24.6" cy="10.2" r="3.60" fill="#9d9382" opacity=".35"/><circle cx="24" cy="9.5" r="3.60" fill="url(#pearl)" stroke="#bfb7a8" stroke-width=".6"/><circle cx="22.74" cy="8.06" r="1.08" fill="#ffffff" opacity=".9"/><ellipse cx="34.8" cy="9.5" rx="0.9" ry="2.81" fill="url(#pearl)" stroke="#bfb7a8" stroke-width=".5"/><ellipse cx="36.8" cy="9.5" rx="0.9" ry="2.81" fill="url(#pearl)" stroke="#bfb7a8" stroke-width=".5"/><circle cx="40.6" cy="10.2" r="3.60" fill="#9d9382" opacity=".35"/><circle cx="40" cy="9.5" r="3.60" fill="url(#pearl)" stroke="#bfb7a8" stroke-width=".6"/><circle cx="38.74" cy="8.06" r="1.08" fill="#ffffff" opacity=".9"/><ellipse cx="50.8" cy="9.5" rx="0.9" ry="2.81" fill="url(#pearl)" stroke="#bfb7a8" stroke-width=".5"/><ellipse cx="52.8" cy="9.5" rx="0.9" ry="2.81" fill="url(#pearl)" stroke="#bfb7a8" stroke-width=".5"/><circle cx="56.6" cy="10.2" r="3.60" fill="#9d9382" opacity=".35"/><circle cx="56" cy="9.5" r="3.60" fill="url(#pearl)" stroke="#bfb7a8" stroke-width=".6"/><circle cx="54.74" cy="8.06" r="1.08" fill="#ffffff" opacity=".9"/><ellipse cx="66.8" cy="9.5" rx="0.9" ry="2.81" fill="url(#pearl)" stroke="#bfb7a8" stroke-width=".5"/><ellipse cx="68.8" cy="9.5" rx="0.9" ry="2.81" fill="url(#pearl)" stroke="#bfb7a8" stroke-width=".5"/><circle cx="72.6" cy="10.2" r="3.60" fill="#9d9382" opacity=".35"/><circle cx="72" cy="9.5" r="3.60" fill="url(#pearl)" stroke="#bfb7a8" stroke-width=".6"/><circle cx="70.74" cy="8.06" r="1.08" fill="#ffffff" opacity=".9"/><ellipse cx="82.8" cy="9.5" rx="0.9" ry="2.81" fill="url(#pearl)" stroke="#bfb7a8" stroke-width=".5"/><ellipse cx="84.8" cy="9.5" rx="0.9" ry="2.81" fill="url(#pearl)" stroke="#bfb7a8" stroke-width=".5"/><circle cx="88.6" cy="10.2" r="3.60" fill="#9d9382" opacity=".35"/><circle cx="88" cy="9.5" r="3.60" fill="url(#pearl)" stroke="#bfb7a8" stroke-width=".6"/><circle cx="86.74" cy="8.06" r="1.08" fill="#ffffff" opacity=".9"/><path d="M0 24 Q4.2 42.599999999999994 2.3100000000000005 55 L0 52 L-2.3100000000000005 55 Q-4.2 42.599999999999994 0 24 Z" transform="translate(.8 1)" fill="#9d9382" opacity=".4"/><path d="M0 24 Q4.2 42.599999999999994 2.3100000000000005 55 L0 52 L-2.3100000000000005 55 Q-4.2 42.599999999999994 0 24 Z" fill="url(#goldG)" stroke="#a3843a" stroke-width=".7" stroke-linejoin="round"/><path d="M0 27 L0 51" stroke="#fff3cf" stroke-width=".8" stroke-linecap="round"/><path d="M48 24 Q52.2 42.599999999999994 50.31 55 L48 52 L45.69 55 Q43.8 42.599999999999994 48 24 Z" transform="translate(.8 1)" fill="#9d9382" opacity=".4"/><path d="M48 24 Q52.2 42.599999999999994 50.31 55 L48 52 L45.69 55 Q43.8 42.599999999999994 48 24 Z" fill="url(#goldG)" stroke="#a3843a" stroke-width=".7" stroke-linejoin="round"/><path d="M48 27 L48 51" stroke="#fff3cf" stroke-width=".8" stroke-linecap="round"/><path d="M96 24 Q100.2 42.599999999999994 98.31 55 L96 52 L93.69 55 Q91.8 42.599999999999994 96 24 Z" transform="translate(.8 1)" fill="#9d9382" opacity=".4"/><path d="M96 24 Q100.2 42.599999999999994 98.31 55 L96 52 L93.69 55 Q91.8 42.599999999999994 96 24 Z" fill="url(#goldG)" stroke="#a3843a" stroke-width=".7" stroke-linejoin="round"/><path d="M96 27 L96 51" stroke="#fff3cf" stroke-width=".8" stroke-linecap="round"/><use href="#lf" transform="translate(24 56) rotate(0) scale(0.98)"/><use href="#lf" transform="translate(72 56) rotate(0) scale(0.98)"/><path d="M3.6 75 A8.4 7.9 0 0 1 20.4 75 Z" fill="#e9e4da" stroke="#bfb7a8" stroke-width=".7"/><path d="M4.9 75 A7.1 6.7 0 0 1 19.1 75 Z" fill="#9d9382" opacity=".35"/><ellipse cx="12.0" cy="69.0" rx="5.8" ry="5.5" fill="url(#eggG)" stroke="#bfb7a8" stroke-width=".7"/><ellipse cx="10.3" cy="67.1" rx="1.7" ry="1.2" fill="#ffffff" opacity=".85"/><path d="M27.6 75 A8.4 7.9 0 0 1 44.4 75 Z" fill="#e9e4da" stroke="#bfb7a8" stroke-width=".7"/><path d="M28.9 75 A7.1 6.7 0 0 1 43.1 75 Z" fill="#9d9382" opacity=".35"/><ellipse cx="36.0" cy="69.0" rx="5.8" ry="5.5" fill="url(#eggG)" stroke="#bfb7a8" stroke-width=".7"/><ellipse cx="34.3" cy="67.1" rx="1.7" ry="1.2" fill="#ffffff" opacity=".85"/><path d="M51.6 75 A8.4 7.9 0 0 1 68.4 75 Z" fill="#e9e4da" stroke="#bfb7a8" stroke-width=".7"/><path d="M52.9 75 A7.1 6.7 0 0 1 67.1 75 Z" fill="#9d9382" opacity=".35"/><ellipse cx="60.0" cy="69.0" rx="5.8" ry="5.5" fill="url(#eggG)" stroke="#bfb7a8" stroke-width=".7"/><ellipse cx="58.3" cy="67.1" rx="1.7" ry="1.2" fill="#ffffff" opacity=".85"/><path d="M75.6 75 A8.4 7.9 0 0 1 92.4 75 Z" fill="#e9e4da" stroke="#bfb7a8" stroke-width=".7"/><path d="M76.9 75 A7.1 6.7 0 0 1 91.1 75 Z" fill="#9d9382" opacity=".35"/><ellipse cx="84.0" cy="69.0" rx="5.8" ry="5.5" fill="url(#eggG)" stroke="#bfb7a8" stroke-width=".7"/><ellipse cx="82.3" cy="67.1" rx="1.7" ry="1.2" fill="#ffffff" opacity=".85"/><path d="M0 62.5 L1.6 66 L1.4 72 L0 75 L-1.4 72 L-1.6 66 Z" fill="url(#goldG)" stroke="#a3843a" stroke-width=".55" stroke-linejoin="round"/><path d="M24 62.5 L25.6 66 L25.4 72 L24 75 L22.6 72 L22.4 66 Z" fill="url(#goldG)" stroke="#a3843a" stroke-width=".55" stroke-linejoin="round"/><path d="M48 62.5 L49.6 66 L49.4 72 L48 75 L46.6 72 L46.4 66 Z" fill="url(#goldG)" stroke="#a3843a" stroke-width=".55" stroke-linejoin="round"/><path d="M72 62.5 L73.6 66 L73.4 72 L72 75 L70.6 72 L70.4 66 Z" fill="url(#goldG)" stroke="#a3843a" stroke-width=".55" stroke-linejoin="round"/><path d="M96 62.5 L97.6 66 L97.4 72 L96 75 L94.6 72 L94.4 66 Z" fill="url(#goldG)" stroke="#a3843a" stroke-width=".55" stroke-linejoin="round"/><circle cx="4.4" cy="84.0" r="2.90" fill="#9d9382" opacity=".35"/><circle cx="4.0" cy="83.5" r="2.90" fill="url(#pearl)" stroke="#bfb7a8" stroke-width=".5"/><circle cx="2.99" cy="82.34" r="0.81" fill="#ffffff"/><circle cx="12.4" cy="84.0" r="2.90" fill="#9d9382" opacity=".35"/><circle cx="12.0" cy="83.5" r="2.90" fill="url(#pearl)" stroke="#bfb7a8" stroke-width=".5"/><circle cx="10.98" cy="82.34" r="0.81" fill="#ffffff"/><circle cx="20.4" cy="84.0" r="2.90" fill="#9d9382" opacity=".35"/><circle cx="20.0" cy="83.5" r="2.90" fill="url(#pearl)" stroke="#bfb7a8" stroke-width=".5"/><circle cx="18.98" cy="82.34" r="0.81" fill="#ffffff"/><circle cx="28.4" cy="84.0" r="2.90" fill="#9d9382" opacity=".35"/><circle cx="28.0" cy="83.5" r="2.90" fill="url(#pearl)" stroke="#bfb7a8" stroke-width=".5"/><circle cx="26.98" cy="82.34" r="0.81" fill="#ffffff"/><circle cx="36.4" cy="84.0" r="2.90" fill="#9d9382" opacity=".35"/><circle cx="36.0" cy="83.5" r="2.90" fill="url(#pearl)" stroke="#bfb7a8" stroke-width=".5"/><circle cx="34.98" cy="82.34" r="0.81" fill="#ffffff"/><circle cx="44.4" cy="84.0" r="2.90" fill="#9d9382" opacity=".35"/><circle cx="44.0" cy="83.5" r="2.90" fill="url(#pearl)" stroke="#bfb7a8" stroke-width=".5"/><circle cx="42.98" cy="82.34" r="0.81" fill="#ffffff"/><circle cx="52.4" cy="84.0" r="2.90" fill="#9d9382" opacity=".35"/><circle cx="52.0" cy="83.5" r="2.90" fill="url(#pearl)" stroke="#bfb7a8" stroke-width=".5"/><circle cx="50.98" cy="82.34" r="0.81" fill="#ffffff"/><circle cx="60.4" cy="84.0" r="2.90" fill="#9d9382" opacity=".35"/><circle cx="60.0" cy="83.5" r="2.90" fill="url(#pearl)" stroke="#bfb7a8" stroke-width=".5"/><circle cx="58.98" cy="82.34" r="0.81" fill="#ffffff"/><circle cx="68.4" cy="84.0" r="2.90" fill="#9d9382" opacity=".35"/><circle cx="68.0" cy="83.5" r="2.90" fill="url(#pearl)" stroke="#bfb7a8" stroke-width=".5"/><circle cx="66.98" cy="82.34" r="0.81" fill="#ffffff"/><circle cx="76.4" cy="84.0" r="2.90" fill="#9d9382" opacity=".35"/><circle cx="76.0" cy="83.5" r="2.90" fill="url(#pearl)" stroke="#bfb7a8" stroke-width=".5"/><circle cx="74.98" cy="82.34" r="0.81" fill="#ffffff"/><circle cx="84.4" cy="84.0" r="2.90" fill="#9d9382" opacity=".35"/><circle cx="84.0" cy="83.5" r="2.90" fill="url(#pearl)" stroke="#bfb7a8" stroke-width=".5"/><circle cx="82.98" cy="82.34" r="0.81" fill="#ffffff"/><circle cx="92.4" cy="84.0" r="2.90" fill="#9d9382" opacity=".35"/><circle cx="92.0" cy="83.5" r="2.90" fill="url(#pearl)" stroke="#bfb7a8" stroke-width=".5"/><circle cx="90.98" cy="82.34" r="0.81" fill="#ffffff"/></g><g id="corner"><g clip-path="url(#miterTop)"><use href="#edge"/></g><g clip-path="url(#miter)"><g transform="matrix(0 1 1 0 0 0)"><use href="#edge"/></g></g><line x1="0" y1="0" x2="96" y2="96" stroke="#a79d8c" stroke-width=".7" opacity=".7"/><rect x="16.5" y="17" width="66" height="66" rx="3" fill="#9d9382" opacity=".45"/><rect x="15" y="15" width="66" height="66" rx="2.5" fill="url(#block)" stroke="#bfb7a8" stroke-width="1"/><rect x="18.5" y="18.5" width="59" height="59" rx="1.5" fill="none" stroke="#d4b86a" stroke-width="1.1"/><rect x="18.5" y="18.5" width="59" height="59" rx="1.5" fill="none" stroke="#fff3cf" stroke-width=".4" transform="translate(-.4 -.4)"/><rect x="21" y="21" width="54" height="54" rx="1" fill="none" stroke="#bfb7a8" stroke-width=".6"/><use href="#lf" transform="translate(48.0 48.0) rotate(-135) scale(0.8)"/><use href="#lf" transform="translate(48.0 48.0) rotate(-45) scale(0.8)"/><use href="#lf" transform="translate(48.0 48.0) rotate(45) scale(0.8)"/><use href="#lf" transform="translate(48.0 48.0) rotate(135) scale(0.8)"/><g transform="translate(48.0 48.0) rotate(0)"><path d="M0 -27 Q3.2 -15.6 1.7600000000000002 -8 L0 -11 L-1.7600000000000002 -8 Q-3.2 -15.6 0 -27 Z" transform="translate(.8 1)" fill="#9d9382" opacity=".4"/><path d="M0 -27 Q3.2 -15.6 1.7600000000000002 -8 L0 -11 L-1.7600000000000002 -8 Q-3.2 -15.6 0 -27 Z" fill="url(#goldG)" stroke="#a3843a" stroke-width=".7" stroke-linejoin="round"/><path d="M0 -24 L0 -12" stroke="#fff3cf" stroke-width=".8" stroke-linecap="round"/></g><g transform="translate(48.0 48.0) rotate(90)"><path d="M0 -27 Q3.2 -15.6 1.7600000000000002 -8 L0 -11 L-1.7600000000000002 -8 Q-3.2 -15.6 0 -27 Z" transform="translate(.8 1)" fill="#9d9382" opacity=".4"/><path d="M0 -27 Q3.2 -15.6 1.7600000000000002 -8 L0 -11 L-1.7600000000000002 -8 Q-3.2 -15.6 0 -27 Z" fill="url(#goldG)" stroke="#a3843a" stroke-width=".7" stroke-linejoin="round"/><path d="M0 -24 L0 -12" stroke="#fff3cf" stroke-width=".8" stroke-linecap="round"/></g><g transform="translate(48.0 48.0) rotate(180)"><path d="M0 -27 Q3.2 -15.6 1.7600000000000002 -8 L0 -11 L-1.7600000000000002 -8 Q-3.2 -15.6 0 -27 Z" transform="translate(.8 1)" fill="#9d9382" opacity=".4"/><path d="M0 -27 Q3.2 -15.6 1.7600000000000002 -8 L0 -11 L-1.7600000000000002 -8 Q-3.2 -15.6 0 -27 Z" fill="url(#goldG)" stroke="#a3843a" stroke-width=".7" stroke-linejoin="round"/><path d="M0 -24 L0 -12" stroke="#fff3cf" stroke-width=".8" stroke-linecap="round"/></g><g transform="translate(48.0 48.0) rotate(270)"><path d="M0 -27 Q3.2 -15.6 1.7600000000000002 -8 L0 -11 L-1.7600000000000002 -8 Q-3.2 -15.6 0 -27 Z" transform="translate(.8 1)" fill="#9d9382" opacity=".4"/><path d="M0 -27 Q3.2 -15.6 1.7600000000000002 -8 L0 -11 L-1.7600000000000002 -8 Q-3.2 -15.6 0 -27 Z" fill="url(#goldG)" stroke="#a3843a" stroke-width=".7" stroke-linejoin="round"/><path d="M0 -24 L0 -12" stroke="#fff3cf" stroke-width=".8" stroke-linecap="round"/></g><circle cx="48.8" cy="49.0" r="21" fill="#9d9382" opacity=".4"/><circle cx="48.0" cy="48.0" r="20.5" fill="#efebe3" stroke="#bfb7a8" stroke-width=".8"/><path d="M0 -20 C 4.2 -16 4.6 -8 0 -3 C -4.6 -8 -4.2 -16 0 -20 Z" fill="url(#petal)" stroke="#bfb7a8" stroke-width=".7" transform="translate(48.0 48.0) rotate(0.0)"/><path d="M0 -17 L0 -5" stroke="#a79d8c" stroke-width=".5" transform="translate(48.0 48.0) rotate(0.0)"/><path d="M0 -20 C 4.2 -16 4.6 -8 0 -3 C -4.6 -8 -4.2 -16 0 -20 Z" fill="url(#petal)" stroke="#bfb7a8" stroke-width=".7" transform="translate(48.0 48.0) rotate(22.5)"/><path d="M0 -17 L0 -5" stroke="#a79d8c" stroke-width=".5" transform="translate(48.0 48.0) rotate(22.5)"/><path d="M0 -20 C 4.2 -16 4.6 -8 0 -3 C -4.6 -8 -4.2 -16 0 -20 Z" fill="url(#petal)" stroke="#bfb7a8" stroke-width=".7" transform="translate(48.0 48.0) rotate(45.0)"/><path d="M0 -17 L0 -5" stroke="#a79d8c" stroke-width=".5" transform="translate(48.0 48.0) rotate(45.0)"/><path d="M0 -20 C 4.2 -16 4.6 -8 0 -3 C -4.6 -8 -4.2 -16 0 -20 Z" fill="url(#petal)" stroke="#bfb7a8" stroke-width=".7" transform="translate(48.0 48.0) rotate(67.5)"/><path d="M0 -17 L0 -5" stroke="#a79d8c" stroke-width=".5" transform="translate(48.0 48.0) rotate(67.5)"/><path d="M0 -20 C 4.2 -16 4.6 -8 0 -3 C -4.6 -8 -4.2 -16 0 -20 Z" fill="url(#petal)" stroke="#bfb7a8" stroke-width=".7" transform="translate(48.0 48.0) rotate(90.0)"/><path d="M0 -17 L0 -5" stroke="#a79d8c" stroke-width=".5" transform="translate(48.0 48.0) rotate(90.0)"/><path d="M0 -20 C 4.2 -16 4.6 -8 0 -3 C -4.6 -8 -4.2 -16 0 -20 Z" fill="url(#petal)" stroke="#bfb7a8" stroke-width=".7" transform="translate(48.0 48.0) rotate(112.5)"/><path d="M0 -17 L0 -5" stroke="#a79d8c" stroke-width=".5" transform="translate(48.0 48.0) rotate(112.5)"/><path d="M0 -20 C 4.2 -16 4.6 -8 0 -3 C -4.6 -8 -4.2 -16 0 -20 Z" fill="url(#petal)" stroke="#bfb7a8" stroke-width=".7" transform="translate(48.0 48.0) rotate(135.0)"/><path d="M0 -17 L0 -5" stroke="#a79d8c" stroke-width=".5" transform="translate(48.0 48.0) rotate(135.0)"/><path d="M0 -20 C 4.2 -16 4.6 -8 0 -3 C -4.6 -8 -4.2 -16 0 -20 Z" fill="url(#petal)" stroke="#bfb7a8" stroke-width=".7" transform="translate(48.0 48.0) rotate(157.5)"/><path d="M0 -17 L0 -5" stroke="#a79d8c" stroke-width=".5" transform="translate(48.0 48.0) rotate(157.5)"/><path d="M0 -20 C 4.2 -16 4.6 -8 0 -3 C -4.6 -8 -4.2 -16 0 -20 Z" fill="url(#petal)" stroke="#bfb7a8" stroke-width=".7" transform="translate(48.0 48.0) rotate(180.0)"/><path d="M0 -17 L0 -5" stroke="#a79d8c" stroke-width=".5" transform="translate(48.0 48.0) rotate(180.0)"/><path d="M0 -20 C 4.2 -16 4.6 -8 0 -3 C -4.6 -8 -4.2 -16 0 -20 Z" fill="url(#petal)" stroke="#bfb7a8" stroke-width=".7" transform="translate(48.0 48.0) rotate(202.5)"/><path d="M0 -17 L0 -5" stroke="#a79d8c" stroke-width=".5" transform="translate(48.0 48.0) rotate(202.5)"/><path d="M0 -20 C 4.2 -16 4.6 -8 0 -3 C -4.6 -8 -4.2 -16 0 -20 Z" fill="url(#petal)" stroke="#bfb7a8" stroke-width=".7" transform="translate(48.0 48.0) rotate(225.0)"/><path d="M0 -17 L0 -5" stroke="#a79d8c" stroke-width=".5" transform="translate(48.0 48.0) rotate(225.0)"/><path d="M0 -20 C 4.2 -16 4.6 -8 0 -3 C -4.6 -8 -4.2 -16 0 -20 Z" fill="url(#petal)" stroke="#bfb7a8" stroke-width=".7" transform="translate(48.0 48.0) rotate(247.5)"/><path d="M0 -17 L0 -5" stroke="#a79d8c" stroke-width=".5" transform="translate(48.0 48.0) rotate(247.5)"/><path d="M0 -20 C 4.2 -16 4.6 -8 0 -3 C -4.6 -8 -4.2 -16 0 -20 Z" fill="url(#petal)" stroke="#bfb7a8" stroke-width=".7" transform="translate(48.0 48.0) rotate(270.0)"/><path d="M0 -17 L0 -5" stroke="#a79d8c" stroke-width=".5" transform="translate(48.0 48.0) rotate(270.0)"/><path d="M0 -20 C 4.2 -16 4.6 -8 0 -3 C -4.6 -8 -4.2 -16 0 -20 Z" fill="url(#petal)" stroke="#bfb7a8" stroke-width=".7" transform="translate(48.0 48.0) rotate(292.5)"/><path d="M0 -17 L0 -5" stroke="#a79d8c" stroke-width=".5" transform="translate(48.0 48.0) rotate(292.5)"/><path d="M0 -20 C 4.2 -16 4.6 -8 0 -3 C -4.6 -8 -4.2 -16 0 -20 Z" fill="url(#petal)" stroke="#bfb7a8" stroke-width=".7" transform="translate(48.0 48.0) rotate(315.0)"/><path d="M0 -17 L0 -5" stroke="#a79d8c" stroke-width=".5" transform="translate(48.0 48.0) rotate(315.0)"/><path d="M0 -20 C 4.2 -16 4.6 -8 0 -3 C -4.6 -8 -4.2 -16 0 -20 Z" fill="url(#petal)" stroke="#bfb7a8" stroke-width=".7" transform="translate(48.0 48.0) rotate(337.5)"/><path d="M0 -17 L0 -5" stroke="#a79d8c" stroke-width=".5" transform="translate(48.0 48.0) rotate(337.5)"/><circle cx="48.0" cy="48.0" r="9.5" fill="#f6f3ec" stroke="#bfb7a8" stroke-width=".8"/><path d="M0 -11 C 3 -8.5 3.2 -4 0 -1.5 C -3.2 -4 -3 -8.5 0 -11 Z" fill="#ffffff" stroke="#bfb7a8" stroke-width=".6" transform="translate(48.0 48.0) rotate(22.5)"/><path d="M0 -11 C 3 -8.5 3.2 -4 0 -1.5 C -3.2 -4 -3 -8.5 0 -11 Z" fill="#ffffff" stroke="#bfb7a8" stroke-width=".6" transform="translate(48.0 48.0) rotate(67.5)"/><path d="M0 -11 C 3 -8.5 3.2 -4 0 -1.5 C -3.2 -4 -3 -8.5 0 -11 Z" fill="#ffffff" stroke="#bfb7a8" stroke-width=".6" transform="translate(48.0 48.0) rotate(112.5)"/><path d="M0 -11 C 3 -8.5 3.2 -4 0 -1.5 C -3.2 -4 -3 -8.5 0 -11 Z" fill="#ffffff" stroke="#bfb7a8" stroke-width=".6" transform="translate(48.0 48.0) rotate(157.5)"/><path d="M0 -11 C 3 -8.5 3.2 -4 0 -1.5 C -3.2 -4 -3 -8.5 0 -11 Z" fill="#ffffff" stroke="#bfb7a8" stroke-width=".6" transform="translate(48.0 48.0) rotate(202.5)"/><path d="M0 -11 C 3 -8.5 3.2 -4 0 -1.5 C -3.2 -4 -3 -8.5 0 -11 Z" fill="#ffffff" stroke="#bfb7a8" stroke-width=".6" transform="translate(48.0 48.0) rotate(247.5)"/><path d="M0 -11 C 3 -8.5 3.2 -4 0 -1.5 C -3.2 -4 -3 -8.5 0 -11 Z" fill="#ffffff" stroke="#bfb7a8" stroke-width=".6" transform="translate(48.0 48.0) rotate(292.5)"/><path d="M0 -11 C 3 -8.5 3.2 -4 0 -1.5 C -3.2 -4 -3 -8.5 0 -11 Z" fill="#ffffff" stroke="#bfb7a8" stroke-width=".6" transform="translate(48.0 48.0) rotate(337.5)"/><circle cx="48.0" cy="48.0" r="4.6" fill="url(#boss)" stroke="#a3843a" stroke-width=".8"/><circle cx="46.6" cy="46.5" r="1.3" fill="#fff3cf"/></g></defs><rect width="288" height="288" fill="#f6f4ef"/><use href="#edge" transform="translate(96 0)"/><use href="#edge" transform="translate(96 192) translate(48.0 48.0) rotate(180) translate(-48.0 -48.0)"/><use href="#edge" transform="translate(0 96) translate(48.0 48.0) rotate(-90) translate(-48.0 -48.0)"/><use href="#edge" transform="translate(192 96) translate(48.0 48.0) rotate(90) translate(-48.0 -48.0)"/><use href="#corner" transform="translate(0 0)"/><use href="#corner" transform="translate(192 0) translate(48.0 48.0) scale(-1 1) translate(-48.0 -48.0)"/><use href="#corner" transform="translate(0 192) translate(48.0 48.0) rotate(-90) translate(-48.0 -48.0)"/><use href="#corner" transform="translate(192 192) translate(48.0 48.0) rotate(180) translate(-48.0 -48.0)"/></svg>